# xmcd
#
# Track frame offsets: 
#        150
#        27336
#        51445
#        76087
#        104414
#        131029
#        153344
#        172981
#        195430
#        213459
#        237195
#        271115
#
# Disc length: 3855 seconds
#
# Revision: 0
# Processed by: cddbd v1.5.2PL0 Copyright (c) Steve Scherf et al.
# Submitted via: ExactAudioCopyFreeDBPlugin 1.0
#
DISCID=9a0f0d0c
DTITLE=罗海英 - DTSES雅拉的神奇
DYEAR=2010
DGENRE=DTSES
TTITLE0=蒙古人
TTITLE1=灰姑娘
TTITLE2=高原红
TTITLE3=向往神鹰
TTITLE4=神奇的九寨
TTITLE5=阿诗玛
TTITLE6=最后的倾诉
TTITLE7=香格里拉
TTITLE8=角落之歌
TTITLE9=天亮了
TTITLE10=葬花吟
TTITLE11=新阿瓦尔古丽
EXTD=
EXTT0=
EXTT1=
EXTT2=
EXTT3=
EXTT4=
EXTT5=
EXTT6=
EXTT7=
EXTT8=
EXTT9=
EXTT10=
EXTT11=
PLAYORDER=
